<?xml version="1.0" encoding="UTF-8" standalone="no"?>
<svg
   xmlns:dc="http://purl.org/dc/elements/1.1/"
   xmlns:cc="http://creativecommons.org/ns#"
   xmlns:rdf="http://www.w3.org/1999/02/22-rdf-syntax-ns#"
   xmlns:svg="http://www.w3.org/2000/svg"
   xmlns="http://www.w3.org/2000/svg"
   xmlns:sodipodi="http://sodipodi.sourceforge.net/DTD/sodipodi-0.dtd"
   xmlns:inkscape="http://www.inkscape.org/namespaces/inkscape"
   version="1.0"
   width="145.69357"
   height="136.96944"
   viewBox="0 0 1456.9358 1369.6944"
   preserveAspectRatio="xMidYMid meet"
   id="svg105"
   sodipodi:docname="logoPuntoVerdeEdited.svg"
   inkscape:version="0.92.3 (unknown)">
  <metadata
     id="metadata111">
    <rdf:RDF>
      <cc:Work
         rdf:about="">
        <dc:format>image/svg+xml</dc:format>
        <dc:type
           rdf:resource="http://purl.org/dc/dcmitype/StillImage" />
        <dc:title></dc:title>
      </cc:Work>
    </rdf:RDF>
  </metadata>
  <defs
     id="defs109" />
  <sodipodi:namedview
     pagecolor="#ffffff"
     bordercolor="#666666"
     borderopacity="1"
     objecttolerance="10"
     gridtolerance="10"
     guidetolerance="10"
     inkscape:pageopacity="0"
     inkscape:pageshadow="2"
     inkscape:window-width="1366"
     inkscape:window-height="664"
     id="namedview107"
     showgrid="false"
     inkscape:zoom="3.5473784"
     inkscape:cx="89.816977"
     inkscape:cy="65.963833"
     inkscape:window-x="0"
     inkscape:window-y="27"
     inkscape:window-maximized="1"
     inkscape:current-layer="svg105" />
  <g
     id="layer101"
     style="fill:#005300;stroke:none"
     transform="translate(-1333.1209,-1073.462)">
    <path
       d="m 3655,2440 c -19,-8 -19,-9 2,-9 12,-1 25,4 28,9 7,12 -2,12 -30,0 z"
       id="path86"
       inkscape:connector-curvature="0" />
    <path
       d="m 2438,2386 c -35,-23 -83,-56 -108,-75 -42,-31 -49,-32 -105,-28 -33,3 -72,9 -86,12 -28,7 -31,2 -46,-96 -5,-37 -5,-37 39,-44 72,-11 168,-6 202,12 17,10 34,16 38,15 5,-1 7,2 5,7 -1,5 27,28 63,52 54,37 73,44 113,44 41,0 53,-5 73,-28 47,-55 24,-173 -50,-255 -51,-56 -48,-68 21,-77 l 58,-7 37,43 c 21,24 38,48 38,52 0,4 8,27 19,50 46,104 32,244 -32,304 -51,49 -91,64 -157,62 -50,-2 -68,-8 -122,-43 z"
       id="path88"
       style="stroke:#ffffff;stroke-width:28;stroke-linecap:round;stroke-miterlimit:4;stroke-dasharray:none;stroke-opacity:1"
       inkscape:connector-curvature="0" />
    <path
       d="m 1889,2343 c -8,-2 -21,-19 -27,-37 -32,-87 5,-156 84,-156 35,0 47,5 68,31 21,25 26,41 26,85 0,39 -4,54 -14,54 -7,0 -19,7 -26,15 -12,14 -72,19 -111,8 z"
       id="path90"
       style="stroke:#ffffff;stroke-width:28;stroke-linecap:round;stroke-miterlimit:4;stroke-dasharray:none;stroke-opacity:1"
       inkscape:connector-curvature="0" />
    <path
       d="m 3604,2334 c 3,-9 6,-18 6,-20 0,-2 7,-4 15,-4 18,0 19,12 3,28 -17,17 -31,15 -24,-4 z"
       id="path92"
       inkscape:connector-curvature="0" />
    <path
       d="m 3756,2325 c -3,-9 0,-15 9,-15 16,0 20,16 6,24 -5,3 -11,-1 -15,-9 z"
       id="path94"
       inkscape:connector-curvature="0" />
    <path
       d="m 1595,2309 c -22,-4 -64,-17 -92,-28 -153,-60 -206,-239 -102,-348 16,-18 34,-33 39,-33 5,0 15,-6 22,-13 7,-7 52,-30 100,-51 48,-21 93,-45 101,-55 8,-9 24,-41 35,-71 18,-50 23,-55 48,-53 39,3 94,31 94,48 0,59 -82,179 -139,202 -125,51 -179,83 -195,117 -26,56 -21,83 25,126 37,34 50,40 106,46 35,3 86,2 114,-3 27,-6 52,-7 54,-2 6,9 -23,89 -39,107 -14,15 -115,22 -171,11 z"
       id="path96"
       style="stroke:#ffffff;stroke-width:28;stroke-linecap:round;stroke-miterlimit:4;stroke-dasharray:none;stroke-opacity:1"
       inkscape:connector-curvature="0" />
    <path
       d="m 2456,1880 c -35,-43 -35,-97 0,-139 21,-26 33,-31 68,-31 51,0 83,29 96,87 8,34 6,42 -19,73 -23,29 -35,35 -73,38 -40,3 -48,-1 -72,-28 z"
       id="path98"
       style="stroke:#ffffff;stroke-width:28;stroke-linecap:round;stroke-miterlimit:4;stroke-dasharray:none;stroke-opacity:1"
       inkscape:connector-curvature="0" />
    <path
       d="m 2331,1680 c -68,-81 -74,-104 -66,-256 l 7,-131 -36,-37 c -31,-33 -39,-37 -72,-33 -20,3 -51,13 -69,23 -38,20 -100,109 -115,165 -6,21 -15,41 -20,44 -4,3 -25,-15 -45,-39 -29,-36 -35,-50 -29,-68 4,-13 9,-28 10,-33 6,-32 71,-116 121,-156 99,-79 191,-93 276,-40 81,50 101,111 92,279 -7,139 -9,131 59,216 l 28,36 -43,40 c -24,21 -47,39 -50,40 -3,0 -25,-22 -48,-50 z"
       id="path100"
       style="stroke:#ffffff;stroke-width:28;stroke-linecap:round;stroke-miterlimit:4;stroke-dasharray:none;stroke-opacity:1"
       inkscape:connector-curvature="0" />
    <path
       d="m 1777,1592 c -40,-42 -38,-103 6,-146 27,-28 38,-32 70,-28 80,9 115,107 61,171 -21,26 -33,31 -68,31 -33,0 -48,-6 -69,-28 z"
       id="path102"
       style="stroke:#ffffff;stroke-width:28;stroke-linecap:round;stroke-miterlimit:4;stroke-dasharray:none;stroke-opacity:1"
       inkscape:connector-curvature="0" />
  </g>
</svg>
